<?xml version="1.0" encoding="utf-8"?>
<!-- Generator: Adobe Illustrator 20.1.0, SVG Export Plug-In . SVG Version: 6.00 Build 0)  -->
<svg version="1.1" id="Layer_1" xmlns="http://www.w3.org/2000/svg" xmlns:xlink="http://www.w3.org/1999/xlink" x="0px" y="0px"
	 viewBox="0 0 55.6 54.4" style="enable-background:new 0 0 55.6 54.4;" xml:space="preserve">
<style type="text/css">
	.st0{fill:#C4D600;}
</style>
<g>
	<path class="st0" d="M22.5,0v10.3c-2.7,1.6-4.9,3.5-6.3,5.8c-1.5,2.3-2.6,4.7-3.3,7.3c-0.7,2.6-1.1,5.4-1.1,8.5h10.7v22.5H0v-14
		C0,32,0.8,25.5,2.4,21.1C4,16.8,6.5,12.7,9.8,9C13,5.3,17.3,2.3,22.5,0z M55.6,0v10.3c-2.7,1.6-4.8,3.5-6.2,5.8
		c-1.4,2.3-2.5,4.7-3.2,7.3c-0.7,2.6-1.1,5.4-1.1,8.5h10.6v22.5H33.1v-14c0-8.4,0.8-14.8,2.4-19.2c1.6-4.4,4.1-8.4,7.3-12.2
		C46.1,5.3,50.4,2.3,55.6,0z"/>
</g>
</svg>
